<?xml version="1.0" encoding="utf-8"?>
<!-- Generator: Adobe Illustrator 18.1.1, SVG Export Plug-In . SVG Version: 6.00 Build 0)  -->
<svg version="1.1" id="Layer_1" xmlns="http://www.w3.org/2000/svg" xmlns:xlink="http://www.w3.org/1999/xlink" x="0px" y="0px"
	 viewBox="343.6 0 597 600" enable-background="new 343.6 0 597 600" xml:space="preserve">
<g>
	<g>
		<path fill="#FFFFFF" d="M767.4,95.4h13v-46c0-0.9,0-1.9,0.1-2.9L768,57.6c-0.3,0.2-0.6,0.4-1,0.4c-0.5,0-0.8-0.2-1-0.5l-1.2-1.6
			l16.4-14.5h3v53.9h12.4v2.9h-29.2V95.4z"/>
		<path fill="#FFFFFF" d="M881.3,141.9c2.2,0,4.2,0.3,6.2,0.9s3.7,1.6,5.2,2.8c1.5,1.3,2.7,2.9,3.6,4.8c0.9,1.9,1.3,4.1,1.3,6.7
			c0,2.1-0.3,4.1-1,5.9c-0.7,1.8-1.5,3.6-2.7,5.3c-1.1,1.7-2.4,3.3-3.9,4.9c-1.5,1.6-3,3.2-4.7,4.9l-17.7,18.1
			c0.9-0.2,1.7-0.4,2.7-0.5c0.9-0.1,1.8-0.2,2.8-0.2h24.4c0.4,0,0.8,0.1,1,0.4c0.3,0.3,0.4,0.6,0.4,1v2.2h-36.5v-1.4
			c0-0.3,0.1-0.6,0.2-0.9s0.3-0.6,0.5-0.8l19.3-19.6c1.6-1.6,3.1-3.2,4.4-4.7c1.4-1.5,2.5-3.1,3.5-4.6c1-1.5,1.8-3.1,2.4-4.8
			c0.6-1.6,0.9-3.4,0.9-5.2c0-2.1-0.3-3.9-1-5.4c-0.7-1.5-1.6-2.8-2.8-3.8c-1.2-1-2.5-1.7-4-2.2c-1.5-0.5-3.1-0.7-4.7-0.7
			c-1.8,0-3.4,0.3-4.9,0.8c-1.5,0.5-2.8,1.3-4,2.3c-1.2,1-2.1,2.1-2.9,3.5c-0.8,1.3-1.3,2.8-1.6,4.4c-0.3,0.9-0.8,1.4-1.6,1.4
			c-0.1,0-0.1,0-0.2,0c-0.1,0-0.1,0-0.2,0l-1.9-0.3c0.3-2.4,1-4.6,2-6.5c1-1.9,2.3-3.5,3.8-4.8c1.5-1.3,3.3-2.3,5.3-3
			C876.8,142.3,879,141.9,881.3,141.9z"/>
		<path fill="#FFFFFF" d="M914.7,271.1c2.2,0,4.2,0.3,6.1,0.9c1.9,0.6,3.6,1.5,5.1,2.7c1.5,1.2,2.6,2.7,3.5,4.5
			c0.8,1.8,1.3,3.9,1.3,6.2c0,1.8-0.3,3.5-0.9,5c-0.6,1.5-1.4,2.8-2.4,3.9s-2.2,2.1-3.5,2.8c-1.4,0.8-2.8,1.3-4.4,1.7
			c4.2,0.8,7.3,2.4,9.4,4.8c2.1,2.4,3.2,5.5,3.2,9.1c0,2.3-0.5,4.5-1.4,6.5c-0.9,2-2.2,3.7-3.8,5.1s-3.5,2.6-5.8,3.4
			c-2.2,0.8-4.6,1.2-7.2,1.2c-3.2,0-5.9-0.4-8.1-1.3s-3.9-2-5.3-3.4c-1.4-1.4-2.5-2.9-3.2-4.7c-0.8-1.7-1.4-3.4-1.9-5.1l1.5-0.6
			c0.3-0.1,0.6-0.2,0.9-0.2c0.3,0,0.6,0.1,0.8,0.2c0.3,0.1,0.5,0.4,0.6,0.8l0.3,0.8c0.2,0.5,0.4,1.1,0.7,1.8
			c0.3,0.7,0.7,1.4,1.1,2.2c0.5,0.8,1,1.5,1.7,2.3c0.7,0.8,1.5,1.4,2.5,2s2.2,1.1,3.5,1.5c1.3,0.4,2.9,0.6,4.7,0.6
			c2.4,0,4.5-0.4,6.3-1.2c1.8-0.8,3.3-1.8,4.5-3.1c1.2-1.2,2.1-2.6,2.7-4.2c0.6-1.5,0.9-3,0.9-4.5c0-1.7-0.3-3.3-0.8-4.8
			c-0.5-1.5-1.5-2.8-2.7-3.9c-1.3-1.1-3-1.9-5.1-2.6c-2.1-0.6-4.7-0.9-7.7-0.9v-2.8c2.5-0.1,4.6-0.4,6.5-1c1.9-0.6,3.4-1.4,4.7-2.5
			c1.3-1,2.2-2.3,2.8-3.7c0.6-1.4,1-3,1-4.8c0-2-0.3-3.7-1-5.2c-0.7-1.5-1.6-2.7-2.7-3.6s-2.4-1.7-3.9-2.1c-1.5-0.5-3.1-0.7-4.7-0.7
			c-1.8,0-3.4,0.3-4.9,0.8c-1.5,0.5-2.8,1.3-4,2.2c-1.1,1-2.1,2.1-2.9,3.5c-0.8,1.3-1.3,2.8-1.7,4.5c-0.2,0.9-0.7,1.4-1.5,1.4
			c-0.2,0-0.3,0-0.4,0l-2-0.3c0.3-2.4,1-4.6,2-6.5c1-1.9,2.2-3.5,3.8-4.8c1.5-1.3,3.3-2.3,5.3-3
			C910.2,271.4,912.4,271.1,914.7,271.1z"/>
		<path fill="#FFFFFF" d="M890.3,447.9h10.4v2.1c0,0.3-0.1,0.5-0.3,0.7c-0.2,0.2-0.4,0.3-0.8,0.3h-9.3v16.2h-3.4v-16.2h-26.7
			c-0.4,0-0.7-0.1-0.9-0.3c-0.2-0.2-0.4-0.4-0.4-0.7l-0.4-1.9l28.4-37.6h3.4V447.9z M886.8,418.3c0-0.5,0-0.9,0-1.4
			c0-0.5,0.1-1,0.2-1.6l-24.4,32.6h24.2V418.3z"/>
		<path fill="#FFFFFF" d="M796.3,508.4c0,0.5-0.2,1-0.5,1.3c-0.4,0.4-0.9,0.5-1.7,0.5h-20.5l-3.4,18.9c1.8-0.5,3.5-0.8,5.1-1
			c1.6-0.2,3.1-0.3,4.6-0.3c2.9,0,5.5,0.4,7.8,1.3c2.2,0.8,4.1,2,5.6,3.5c1.5,1.5,2.6,3.3,3.4,5.4c0.8,2.1,1.2,4.3,1.2,6.8
			c0,3-0.5,5.7-1.6,8s-2.4,4.4-4.2,6c-1.8,1.7-3.8,2.9-6.2,3.8c-2.4,0.9-4.9,1.3-7.6,1.3c-1.6,0-3.1-0.1-4.5-0.4
			c-1.4-0.3-2.7-0.7-4-1.1c-1.3-0.5-2.4-1-3.4-1.6c-1-0.6-2-1.2-2.8-1.9l1.1-1.6c0.3-0.4,0.7-0.6,1.2-0.6c0.3,0,0.8,0.2,1.5,0.6
			c0.7,0.4,1.5,0.8,2.5,1.3s2.2,0.9,3.6,1.3c1.4,0.4,3,0.6,4.9,0.6c2.2,0,4.2-0.4,6.1-1.1s3.5-1.7,4.9-3.1c1.4-1.3,2.5-3,3.3-4.9
			c0.8-2,1.2-4.2,1.2-6.7c0-2-0.3-3.9-0.9-5.6c-0.6-1.7-1.5-3.2-2.7-4.4c-1.2-1.2-2.7-2.2-4.6-2.8c-1.9-0.7-4-1-6.5-1
			c-1.5,0-3.1,0.1-4.8,0.4c-1.7,0.2-3.5,0.6-5.4,1.2l-2.5-0.8l4.4-25.1h25.4V508.4z"/>
		<path fill="#FFFFFF" d="M644.8,564.7c2.4,0,4.7,0.4,6.7,1.2c2.1,0.8,3.8,1.9,5.3,3.4c1.5,1.5,2.6,3.2,3.5,5.3
			c0.8,2.1,1.3,4.4,1.3,6.9s-0.5,4.9-1.4,7.1s-2.2,4-3.8,5.6c-1.6,1.6-3.6,2.8-5.9,3.7c-2.3,0.9-4.8,1.3-7.6,1.3
			c-2.6,0-5.1-0.4-7.2-1.3s-4.1-2.1-5.6-3.7c-1.6-1.6-2.8-3.6-3.6-5.9c-0.9-2.3-1.3-4.9-1.3-7.8c0-2.2,0.6-4.7,1.7-7.5
			c1.1-2.8,3-5.9,5.5-9.4l15.4-20.8c0.5-0.6,1.1-0.9,2-0.9h3.4l-16.9,22c-0.8,1.1-1.6,2.1-2.3,3.1c-0.7,1-1.3,1.9-1.9,2.8
			c1.6-1.6,3.4-2.9,5.6-3.8S642.3,564.7,644.8,564.7z M628.9,581.5c0,2.1,0.3,4.1,1,5.8c0.7,1.8,1.6,3.3,2.8,4.6
			c1.2,1.3,2.7,2.3,4.4,3c1.7,0.7,3.7,1.1,5.8,1.1c2.3,0,4.4-0.4,6.2-1.1c1.8-0.7,3.4-1.7,4.7-3c1.3-1.3,2.3-2.8,3-4.5
			c0.7-1.7,1-3.6,1-5.7c0-2.2-0.3-4.1-1-5.9c-0.7-1.7-1.6-3.2-2.9-4.4c-1.2-1.2-2.7-2.1-4.4-2.8c-1.7-0.7-3.6-1-5.7-1
			c-2.3,0-4.4,0.4-6.3,1.2c-1.9,0.8-3.4,1.9-4.7,3.2c-1.3,1.3-2.3,2.8-2.9,4.4C629.2,578.1,628.9,579.8,628.9,581.5z"/>
		<path fill="#FFFFFF" d="M526.1,507.1v1.7c0,0.5,0,0.8-0.1,1.2c-0.1,0.3-0.2,0.6-0.3,0.9l-26,51.4c-0.2,0.4-0.5,0.8-0.9,1
			c-0.4,0.3-0.8,0.4-1.4,0.4h-2.6l26.1-51.2c0.3-0.7,0.8-1.3,1.2-1.9h-32.6c-0.3,0-0.5-0.1-0.7-0.3c-0.2-0.2-0.3-0.5-0.3-0.8v-2.4
			H526.1z"/>
		<path fill="#FFFFFF" d="M407.1,467.1c-2.7,0-5.2-0.4-7.5-1.1c-2.3-0.7-4.2-1.8-5.8-3.1c-1.6-1.4-2.9-3-3.8-4.9
			c-0.9-1.9-1.4-4.1-1.4-6.5c0-2.1,0.3-3.9,0.9-5.6c0.6-1.6,1.4-3,2.5-4.2c1.1-1.2,2.4-2.2,3.9-3c1.5-0.8,3.2-1.4,5-1.8
			c-1.7-0.5-3.1-1.1-4.4-2c-1.3-0.8-2.4-1.8-3.2-3c-0.9-1.1-1.5-2.4-2-3.8c-0.5-1.4-0.7-2.9-0.7-4.5c0-2,0.4-3.9,1.1-5.6
			c0.8-1.8,1.8-3.3,3.3-4.6c1.4-1.3,3.1-2.3,5.1-3.1c2-0.7,4.3-1.1,6.8-1.1c2.5,0,4.8,0.4,6.8,1.1c2,0.7,3.7,1.8,5.2,3.1
			c1.4,1.3,2.5,2.8,3.3,4.6c0.8,1.8,1.1,3.6,1.1,5.6c0,1.6-0.2,3.1-0.7,4.5c-0.5,1.4-1.1,2.7-2,3.8c-0.9,1.1-2,2.1-3.2,3
			c-1.3,0.8-2.7,1.5-4.4,2c1.8,0.4,3.5,1,5,1.8c1.5,0.8,2.8,1.8,3.9,3c1.1,1.2,1.9,2.6,2.6,4.2c0.6,1.6,0.9,3.5,0.9,5.6
			c0,2.4-0.5,4.6-1.4,6.5c-0.9,1.9-2.2,3.6-3.8,4.9s-3.5,2.4-5.8,3.1C412.3,466.8,409.8,467.1,407.1,467.1z M407.1,464.1
			c2.2,0,4.1-0.3,5.9-0.9c1.8-0.6,3.3-1.5,4.6-2.6c1.3-1.1,2.3-2.4,3-4c0.7-1.5,1-3.3,1-5.2c0-2.5-0.5-4.5-1.4-6.2
			c-0.9-1.7-2.1-3-3.5-4c-1.4-1-3-1.7-4.7-2.1c-1.7-0.4-3.4-0.6-5-0.6c-1.6,0-3.3,0.2-5,0.6c-1.7,0.4-3.3,1.1-4.7,2.1
			c-1.4,1-2.6,2.3-3.5,4c-0.9,1.7-1.4,3.7-1.4,6.2c0,1.9,0.3,3.6,1,5.2c0.7,1.5,1.7,2.9,2.9,4c1.3,1.1,2.8,2,4.6,2.6
			C402.9,463.8,404.9,464.1,407.1,464.1z M407.1,435.5c2.2,0,4-0.3,5.6-1c1.6-0.7,2.9-1.5,3.9-2.6c1-1.1,1.8-2.4,2.3-3.8
			c0.5-1.4,0.7-2.9,0.7-4.4c0-1.6-0.3-3.1-0.8-4.5c-0.6-1.4-1.4-2.6-2.5-3.7s-2.4-1.9-4-2.4c-1.6-0.6-3.3-0.9-5.3-0.9
			s-3.8,0.3-5.4,0.9c-1.6,0.6-2.9,1.4-4,2.4s-1.9,2.3-2.5,3.7c-0.6,1.4-0.8,2.9-0.8,4.5c0,1.5,0.2,3,0.7,4.4
			c0.5,1.4,1.3,2.7,2.3,3.8c1,1.1,2.4,2,3.9,2.6C403,435.2,404.9,435.5,407.1,435.5z"/>
		<path fill="#FFFFFF" d="M368.2,307c-2.3,0-4.5-0.4-6.4-1.1c-2-0.8-3.7-1.8-5.1-3.3c-1.4-1.4-2.5-3.1-3.3-5.1
			c-0.8-2-1.2-4.2-1.2-6.7c0-2.4,0.4-4.7,1.3-6.7c0.9-2.1,2.1-3.9,3.7-5.4s3.5-2.7,5.7-3.6c2.2-0.9,4.6-1.3,7.2-1.3
			c2.5,0,4.8,0.4,6.9,1.3c2.1,0.9,3.9,2.1,5.4,3.6s2.7,3.4,3.5,5.6c0.8,2.2,1.3,4.6,1.3,7.3c0,1.5-0.2,2.9-0.5,4.2s-0.8,2.7-1.4,4
			c-0.6,1.3-1.3,2.7-2.2,4.1c-0.9,1.4-1.8,2.9-2.9,4.5l-14.8,21.8c-0.4,0.6-1.1,0.9-2,0.9h-3.4l16.7-23.4c0.8-1.1,1.5-2.2,2.2-3.2
			c0.7-1,1.3-2,1.9-2.9c-1.5,1.7-3.4,3-5.6,4C373,306.6,370.7,307,368.2,307z M383.5,290.9c0-2.1-0.3-3.9-1-5.6
			c-0.7-1.7-1.6-3.2-2.8-4.4c-1.2-1.2-2.6-2.2-4.3-2.8c-1.6-0.7-3.4-1-5.4-1c-2.1,0-4,0.3-5.7,1c-1.7,0.7-3.2,1.6-4.5,2.8
			c-1.2,1.2-2.2,2.6-2.9,4.3c-0.7,1.7-1,3.5-1,5.5c0,2.1,0.3,4,1,5.6c0.6,1.7,1.5,3.1,2.7,4.2c1.2,1.2,2.6,2,4.2,2.7
			c1.6,0.6,3.5,0.9,5.5,0.9c2.3,0,4.3-0.4,6.1-1.2c1.8-0.8,3.3-1.8,4.5-3c1.2-1.3,2.2-2.7,2.8-4.2
			C383.2,294.1,383.5,292.5,383.5,290.9z"/>
	</g>
	<g>
		<g>
			<path fill="#FFFFFF" d="M370.7,194.4h13v-46c0-0.9,0-1.9,0.1-2.9l-12.5,11.1c-0.3,0.2-0.6,0.4-1,0.4c-0.5,0-0.8-0.2-1-0.5
				l-1.2-1.6l16.4-14.5h3v53.9h12.4v2.9h-29.2V194.4z"/>
			<path fill="#FFFFFF" d="M448.2,169c0,5-0.5,9.3-1.6,12.9c-1.1,3.6-2.5,6.6-4.4,9c-1.8,2.4-4,4.1-6.5,5.3
				c-2.5,1.2-5.1,1.7-7.9,1.7s-5.4-0.6-7.9-1.7c-2.5-1.2-4.6-2.9-6.4-5.3c-1.8-2.4-3.3-5.4-4.3-9c-1.1-3.6-1.6-7.9-1.6-12.9
				s0.5-9.3,1.6-12.9c1.1-3.6,2.5-6.6,4.3-9c1.8-2.4,4-4.1,6.4-5.3c2.5-1.2,5.1-1.7,7.9-1.7s5.4,0.6,7.9,1.7s4.6,2.9,6.5,5.3
				c1.8,2.4,3.3,5.4,4.4,9C447.7,159.8,448.2,164.1,448.2,169z M444.2,169c0-4.6-0.4-8.5-1.3-11.8c-0.9-3.3-2.1-5.9-3.5-8
				c-1.5-2.1-3.2-3.6-5.2-4.5s-4.1-1.4-6.3-1.4c-2.2,0-4.3,0.5-6.2,1.4s-3.7,2.5-5.2,4.5c-1.5,2.1-2.7,4.7-3.6,8
				c-0.9,3.3-1.3,7.2-1.3,11.8c0,4.6,0.4,8.5,1.3,11.8c0.9,3.2,2.1,5.9,3.6,8c1.5,2.1,3.2,3.6,5.2,4.5c2,0.9,4.1,1.4,6.2,1.4
				c2.2,0,4.3-0.5,6.3-1.4c2-0.9,3.7-2.5,5.2-4.5c1.5-2.1,2.7-4.7,3.5-8C443.8,177.6,444.2,173.6,444.2,169z"/>
		</g>
		<g>
			<path fill="#FFFFFF" d="M470.8,95.4h13v-46c0-0.9,0-1.9,0.1-2.9l-12.5,11.1c-0.3,0.2-0.6,0.4-1,0.4c-0.5,0-0.8-0.2-1-0.5
				l-1.2-1.6l16.4-14.5h3v53.9H500v2.9h-29.2V95.4z"/>
			<path fill="#FFFFFF" d="M517.2,95.4h13v-46c0-0.9,0-1.9,0.1-2.9l-12.5,11.1c-0.3,0.2-0.6,0.4-1,0.4c-0.5,0-0.8-0.2-1-0.5
				l-1.2-1.6L531,41.5h3v53.9h12.4v2.9h-29.2V95.4z"/>
		</g>
		<g>
			<path fill="#FFFFFF" d="M611.4,55.1h13v-46c0-0.9,0-1.9,0.1-2.9L612,17.4c-0.3,0.2-0.6,0.4-1,0.4c-0.5,0-0.8-0.2-1-0.5l-1.2-1.6
				l16.4-14.5h3v53.9h12.4V58h-29.2V55.1z"/>
			<path fill="#FFFFFF" d="M669.5,0.8c2.2,0,4.2,0.3,6.2,0.9s3.7,1.6,5.2,2.8c1.5,1.3,2.7,2.9,3.6,4.8c0.9,1.9,1.3,4.1,1.3,6.7
				c0,2.1-0.3,4.1-1,5.9c-0.7,1.8-1.5,3.6-2.7,5.3c-1.1,1.7-2.4,3.3-3.9,4.9c-1.5,1.6-3,3.2-4.7,4.9l-17.7,18.1
				c0.9-0.2,1.7-0.4,2.7-0.5c0.9-0.1,1.8-0.2,2.8-0.2h24.4c0.4,0,0.8,0.1,1,0.4c0.3,0.3,0.4,0.6,0.4,1V58h-36.5v-1.4
				c0-0.3,0.1-0.6,0.2-0.9s0.3-0.6,0.5-0.8l19.3-19.6c1.6-1.6,3.1-3.2,4.4-4.7c1.4-1.5,2.5-3.1,3.5-4.6c1-1.5,1.8-3.1,2.4-4.8
				c0.6-1.6,0.9-3.4,0.9-5.2c0-2.1-0.3-3.9-1-5.4c-0.7-1.5-1.6-2.8-2.8-3.8c-1.2-1-2.5-1.7-4-2.2C672.5,4.3,671,4,669.3,4
				c-1.8,0-3.4,0.3-4.9,0.8c-1.5,0.5-2.8,1.3-4,2.3c-1.2,1-2.1,2.1-2.9,3.5c-0.8,1.3-1.3,2.8-1.6,4.4c-0.3,0.9-0.8,1.4-1.6,1.4
				c-0.1,0-0.1,0-0.2,0c-0.1,0-0.1,0-0.2,0l-1.9-0.3c0.3-2.4,1-4.6,2-6.5c1-1.9,2.3-3.5,3.8-4.8c1.5-1.3,3.3-2.3,5.3-3
				C665,1.1,667.2,0.8,669.5,0.8z"/>
		</g>
	</g>
</g>
</svg>
